<svg width="1440" height="1543" viewBox="0 0 1440 1543" fill="none" xmlns="http://www.w3.org/2000/svg">
<path fill-rule="evenodd" clip-rule="evenodd" d="M178.573 104.301C360.096 123.245 524.477 187.185 667.114 300.966C833.083 433.358 1004.07 579.531 1037.12 789.156C1074.7 1027.53 1035.2 1305.27 849.838 1459.94C670.878 1609.26 411.59 1513.23 178.573 1505.53C-41.1755 1498.27 -297.125 1575.18 -449.71 1416.99C-601.551 1259.57 -517.009 1007.75 -512.423 789.156C-508 578.341 -573.728 335.598 -423.908 187.109C-274.283 38.8139 -31.0257 82.4281 178.573 104.301Z" fill="#FE9602"/>
<path d="M1731.25 17.866C1731.25 17.866 1323.03 -59.3086 1059.79 343.658C938.133 529.901 918.159 647.643 938.642 834.319C969.359 1114.3 1019.13 1179.38 1242 1085.19C1361.58 1034.65 1488.42 975.692 1488.42 975.692C1558.96 941.409 1764.15 873.165 1799.73 876.816C1835.31 880.467 1803.51 14.1765 1731.25 17.866Z" fill="#FF3B2F"/>
</svg>
